<svg width="306" height="102" viewBox="0 0 306 102" fill="none" xmlns="http://www.w3.org/2000/svg">
<path d="M95.0767 86.1583H86.1641V14.8575H95.0767V86.1583Z" fill="#FFE1C2"/>
<path d="M124.904 86.1584C118.566 86.1584 113.496 83.9718 109.693 79.5987C105.891 75.1622 103.989 68.5708 103.989 59.8245C103.989 51.0783 105.891 44.4869 109.693 40.0504C113.559 35.5505 118.661 33.3006 124.999 33.3006C127.661 33.3006 129.975 33.6492 131.939 34.3463C133.904 34.9801 135.615 35.8674 137.073 37.0082C138.531 38.149 139.767 39.4166 140.781 40.8109H141.351C141.288 39.987 141.161 38.7828 140.971 37.1984C140.844 35.5505 140.781 34.2513 140.781 33.3006V14.8572H148.552V86.1584H142.397L141.161 78.3628H140.781C139.767 79.8205 138.531 81.1514 137.073 82.3556C135.615 83.4965 133.872 84.4154 131.844 85.1126C129.879 85.8098 127.566 86.1584 124.904 86.1584ZM126.235 79.2184C131.622 79.2184 135.393 77.7607 137.548 74.8453C139.767 71.8665 140.876 67.3983 140.876 61.4407V59.9196C140.876 53.5817 139.83 48.7333 137.738 45.3742C135.647 41.9517 131.781 40.2405 126.14 40.2405C121.64 40.2405 118.25 42.0468 115.968 45.6594C113.75 49.2086 112.64 53.9937 112.64 60.0147C112.64 66.099 113.75 70.8207 115.968 74.1798C118.25 77.5389 121.672 79.2184 126.235 79.2184Z" fill="#FFE1C2"/>
<path d="M180.471 33.3956C186.683 33.3956 191.278 34.7583 194.256 37.4836C197.235 40.2088 198.725 44.5503 198.725 50.5079V86.1584H192.64L191.024 77.9825H190.644C189.186 79.8205 187.665 81.3733 186.08 82.6408C184.559 83.845 182.785 84.7323 180.757 85.3027C178.792 85.8732 176.384 86.1584 173.532 86.1584C170.489 86.1584 167.732 85.6196 165.261 84.5422C162.852 83.4648 160.951 81.8169 159.557 79.5987C158.162 77.317 157.465 74.465 157.465 71.0426C157.465 65.9723 159.461 62.0745 163.454 59.3492C167.447 56.5605 173.595 55.0394 181.898 54.7859L190.549 54.5007V51.4585C190.549 47.2122 189.63 44.2651 187.792 42.6172C185.954 40.9694 183.355 40.1455 179.996 40.1455C177.334 40.1455 174.799 40.5574 172.391 41.3813C169.982 42.1419 167.732 43.0292 165.641 44.0432L163.074 37.7688C165.292 36.5646 167.922 35.5505 170.965 34.7266C174.007 33.8393 177.176 33.3956 180.471 33.3956ZM182.943 60.5851C176.605 60.8386 172.201 61.8527 169.729 63.6273C167.32 65.4019 166.116 67.9053 166.116 71.1376C166.116 73.9897 166.972 76.0812 168.683 77.4121C170.458 78.7431 172.708 79.4085 175.433 79.4085C179.743 79.4085 183.324 78.236 186.176 75.891C189.028 73.4826 190.454 69.8067 190.454 64.8631V60.2999L182.943 60.5851ZM194.542 14.8574C194.351 17.3925 193.623 19.6108 192.355 21.5121C191.151 23.4135 189.471 24.9029 187.316 25.9803C185.161 27.0578 182.563 27.5965 179.521 27.5965C174.831 27.5965 171.282 26.4557 168.873 24.1741C166.528 21.829 165.229 18.7235 164.975 14.8574H170.109C170.299 16.5686 170.775 17.8679 171.535 18.7552C172.359 19.5791 173.436 20.1495 174.767 20.4664C176.162 20.7199 177.81 20.8467 179.711 20.8467C181.359 20.8467 182.848 20.6882 184.179 20.3713C185.573 20.0544 186.714 19.484 187.602 18.6601C188.552 17.7728 189.123 16.5052 189.313 14.8574H194.542Z" fill="#FFE1C2"/>
<path d="M244.381 71.1376C244.381 74.4333 243.557 77.1903 241.909 79.4085C240.261 81.6268 237.916 83.3063 234.874 84.4471C231.832 85.588 228.219 86.1584 224.036 86.1584C220.487 86.1584 217.413 85.8732 214.815 85.3027C212.28 84.7323 210.03 83.9401 208.065 82.9261V75.3206C210.093 76.3347 212.533 77.2853 215.385 78.1727C218.301 78.9966 221.248 79.4085 224.227 79.4085C228.473 79.4085 231.547 78.7431 233.448 77.4121C235.349 76.0178 236.3 74.1798 236.3 71.8982C236.3 70.6306 235.952 69.4898 235.254 68.4757C234.557 67.4617 233.29 66.4476 231.452 65.4335C229.677 64.4195 227.11 63.2787 223.751 62.0111C220.455 60.7435 217.635 59.4759 215.29 58.2084C212.945 56.9408 211.139 55.4197 209.871 53.6451C208.604 51.8705 207.97 49.5889 207.97 46.8002C207.97 42.4905 209.713 39.1631 213.199 36.8181C216.748 34.4731 221.374 33.3006 227.079 33.3006C230.184 33.3006 233.068 33.6175 235.73 34.2513C238.455 34.8217 240.99 35.6456 243.335 36.723L240.483 43.3778C239.089 42.744 237.599 42.2053 236.015 41.7616C234.494 41.2546 232.941 40.8743 231.357 40.6208C229.772 40.3039 228.156 40.1455 226.508 40.1455C223.086 40.1455 220.455 40.7159 218.617 41.8567C216.843 42.9341 215.956 44.4235 215.956 46.3249C215.956 47.7192 216.368 48.9234 217.191 49.9375C218.015 50.8881 219.378 51.8388 221.279 52.7895C223.244 53.6768 225.843 54.7542 229.075 56.0218C232.307 57.226 235.064 58.4619 237.346 59.7295C239.628 60.997 241.37 62.5498 242.575 64.3878C243.779 66.1624 244.381 68.4123 244.381 71.1376Z" fill="#FFE1C2"/>
<path d="M272.894 33.3956C279.105 33.3956 283.7 34.7583 286.679 37.4836C289.658 40.2088 291.147 44.5503 291.147 50.5079V86.1584H285.063L283.447 77.9825H283.066C281.609 79.8205 280.088 81.3733 278.503 82.6409C276.982 83.8451 275.207 84.7324 273.179 85.3028C271.215 85.8732 268.806 86.1584 265.954 86.1584C262.912 86.1584 260.155 85.6197 257.683 84.5422C255.275 83.4648 253.373 81.8169 251.979 79.5987C250.585 77.317 249.888 74.465 249.888 71.0426C249.888 65.9723 251.884 62.0745 255.877 59.3492C259.87 56.5605 266.017 55.0394 274.32 54.7859L282.971 54.5007V51.4586C282.971 47.2122 282.052 44.2651 280.214 42.6172C278.376 40.9694 275.778 40.1455 272.419 40.1455C269.757 40.1455 267.222 40.5574 264.813 41.3814C262.405 42.1419 260.155 43.0292 258.063 44.0433L255.497 37.7688C257.715 36.5646 260.345 35.5505 263.387 34.7266C266.429 33.8393 269.598 33.3956 272.894 33.3956ZM275.366 60.5851C269.028 60.8386 264.623 61.8527 262.151 63.6273C259.743 65.4019 258.539 67.9053 258.539 71.1376C258.539 73.9897 259.394 76.0812 261.106 77.4121C262.88 78.7431 265.13 79.4085 267.855 79.4085C272.165 79.4085 275.746 78.236 278.598 75.891C281.45 73.4826 282.876 69.8067 282.876 64.8631V60.2999L275.366 60.5851ZM286.964 14.8574C286.774 17.3925 286.045 19.6108 284.778 21.5121C283.573 23.4135 281.894 24.9029 279.739 25.9803C277.584 27.0578 274.986 27.5965 271.943 27.5965C267.253 27.5965 263.704 26.4557 261.296 24.1741C258.951 21.829 257.651 18.7235 257.398 14.8574H262.532C262.722 16.5686 263.197 17.8679 263.958 18.7552C264.782 19.5791 265.859 20.1495 267.19 20.4664C268.584 20.7199 270.232 20.8467 272.133 20.8467C273.781 20.8467 275.271 20.6882 276.602 20.3713C277.996 20.0544 279.137 19.484 280.024 18.6601C280.975 17.7728 281.545 16.5052 281.735 14.8574H286.964Z" fill="#FFE1C2"/>
<path fill-rule="evenodd" clip-rule="evenodd" d="M5.94152 21.4562C13.2035 8.7453 24.6584 0.660189 40.1066 0.660189C70.9 -0.571574 204.796 0.239499 256.457 0.552429C267.095 0.61687 274.246 0.660187 276.291 0.660189C292.63 0.660206 303.029 5.44786 306 8.08739V18.4854C303.028 15.516 291.144 9.57283 276.291 9.57278C275.781 9.57278 272.916 9.55332 268.17 9.52108C231.452 9.27166 82.1394 8.25741 39.589 9.57278C26.259 9.57278 16.3175 18.4751 11.882 30.3703C9.78323 35.999 9.07986 43.0327 8.93937 50.8362C9.07987 58.6396 9.78323 65.6733 11.882 71.302C16.3175 83.1972 26.259 92.0995 39.589 92.0995C82.1393 93.4149 231.451 92.4006 268.17 92.1512C272.916 92.1189 275.781 92.0995 276.291 92.0995C291.144 92.0994 303.028 86.1563 306 83.1869V93.5849C303.029 96.2244 292.63 101.012 276.291 101.012C274.246 101.012 267.095 101.055 256.457 101.12C204.797 101.433 70.9001 102.244 40.1066 101.012C24.6584 101.012 13.2035 92.927 5.94152 80.216C1.93014 73.1947 0.481541 64.6121 0.107441 54.1357C0.0721203 54.1357 0.03631 54.1357 0 54.1357C0 53.0166 0.00764193 51.9168 0.0243882 50.8361C0.00764193 49.7554 0 48.6557 0 47.5366C0.03631 47.5366 0.0721191 47.5366 0.10744 47.5366C0.48154 37.0602 1.93014 28.4776 5.94152 21.4562Z" fill="#725E49"/>
<path d="M56.2209 14.8574C63.3766 14.8574 68.6703 16.6988 72.1021 20.3816C75.5339 24.0645 77.2498 29.9313 77.2498 37.9821V86.1584H70.2402L68.3783 75.11H67.9402C66.2608 77.5937 64.5084 79.6921 62.6829 81.405C60.9305 83.0323 58.8861 84.2313 56.5495 85.0022C54.286 85.773 51.5114 86.1584 48.2256 86.1584C44.7208 86.1584 41.5446 85.4304 38.6969 83.9744C35.9223 82.5184 33.7317 80.2916 32.1254 77.2939C30.519 74.2107 29.7158 70.3566 29.7158 65.7316C29.7158 58.8799 32.0159 53.6126 36.6159 49.9298C41.216 46.1613 48.2986 44.1058 57.8638 43.7632H68.3372V39.6522C68.3372 33.9138 66.7719 29.5459 64.6544 27.319C62.5369 25.0922 59.5432 23.9788 55.6733 23.9788C52.6066 23.9788 49.6859 24.5355 46.9113 25.6489C44.1367 26.6767 41.5446 27.8757 39.135 29.2461L36.1778 20.7671C38.7334 19.1398 41.7636 17.7694 45.2684 16.656C48.7732 15.4569 52.4241 14.8574 56.2209 14.8574ZM59.0686 51.5999C51.7669 51.9425 46.6922 53.3128 43.8446 55.711C41.0699 58.1091 39.6826 61.4921 39.6826 65.8601C39.6826 69.7142 40.6684 72.5406 42.6398 74.3391C44.6843 76.1377 47.2764 77.037 50.4161 77.037C55.3813 77.037 59.5067 75.4525 62.7925 72.2836C66.0782 69.029 68.3783 64.4469 68.3783 57.7665V51.5999H59.0686Z" fill="#725E49"/>
</svg>
