<svg width="86" height="86" viewBox="0 0 86 86" fill="none" xmlns="http://www.w3.org/2000/svg">
<ellipse cx="43.1213" cy="42.8158" rx="42.4963" ry="42.8158" fill="#725E49"/>
<path fill-rule="evenodd" clip-rule="evenodd" d="M59.0635 27.3729C59.0637 27.3984 59.0637 27.4239 59.0637 27.4493H59.0635L59.0635 42.4217H59.0637L59.0635 42.4524V42.5951H59.0606C59.0589 42.6508 59.0565 42.7122 59.0534 42.7781H60.3116V36.1831H66.9291C70.2376 36.1831 72.6339 39.3387 71.7455 42.5257L64.4465 68.709C63.8438 70.8709 61.8745 72.3664 59.6301 72.3664H27.5075C25.2632 72.3664 23.2938 70.8709 22.6911 68.709L15.3921 42.5257C14.5037 39.3387 16.9 36.1831 20.2085 36.1831H26.6237V42.7781H27.8814C27.8793 42.7334 27.8775 42.6907 27.876 42.6505H27.8716V42.4844C27.8713 42.462 27.8711 42.441 27.8711 42.4217H27.8716V27.4493H27.8712C27.8712 27.4142 27.8713 27.3791 27.8716 27.3439V27.1505H27.8741C27.9509 23.0934 29.5846 18.6519 32.4393 15.7973C35.3641 12.8724 39.3311 11.2292 43.4675 11.2292C47.6039 11.2292 51.5708 12.8724 54.4957 15.7973C57.3556 18.6572 58.9901 23.11 59.0613 27.1733H59.0635V27.3729ZM50.3296 27.3983L50.3297 42.5951H50.3328C50.3345 42.6508 50.337 42.7122 50.3401 42.7781H49.0823V36.1831H37.853V42.7781H36.5947C36.5968 42.7334 36.5986 42.6907 36.6001 42.6505H36.6055V27.3782C36.6235 25.5629 37.3276 23.2333 38.6015 21.9595C39.892 20.6689 41.6424 19.9439 43.4675 19.9439C45.2926 19.9439 47.0429 20.6689 48.3335 21.9595C49.612 23.238 50.3166 25.5802 50.3296 27.3983ZM50.3401 42.7782C50.3725 43.4607 50.4811 44.6276 50.6622 45.0162C50.8816 45.4871 51.2033 45.9151 51.6088 46.2755C52.0143 46.636 52.4957 46.9219 53.0256 47.117C53.5554 47.312 54.1232 47.4125 54.6967 47.4125C55.2702 47.4125 55.8381 47.312 56.3679 47.117C56.8977 46.9219 57.3791 46.636 57.7846 46.2755C58.1901 45.9151 58.5118 45.4871 58.7313 45.0162C58.9124 44.6276 59.0209 43.4607 59.0534 42.7782H60.312C60.312 43.4336 60.1668 45.5085 59.8847 46.114C59.6025 46.7195 59.1889 47.2697 58.6676 47.7331C58.1462 48.1966 57.5272 48.5642 56.846 48.815C56.1648 49.0658 55.4347 49.1949 54.6974 49.1949C53.9601 49.1949 53.23 49.0658 52.5488 48.815C51.8676 48.5642 51.2486 48.1966 50.7272 47.7331C50.2059 47.2697 49.7923 46.7195 49.5101 46.114C49.228 45.5085 49.0827 43.4336 49.0827 42.7782H50.3401ZM27.8814 42.7782C27.9138 43.4607 28.0224 44.6276 28.2035 45.0162C28.423 45.4871 28.7446 45.9151 29.1501 46.2755C29.5557 46.636 30.0371 46.9219 30.5669 47.117C31.0967 47.312 31.6646 47.4125 32.238 47.4125C32.8115 47.4125 33.3794 47.312 33.9092 47.117C34.439 46.9219 34.9204 46.636 35.3259 46.2755C35.7314 45.9151 36.0531 45.4871 36.2726 45.0162C36.4537 44.6276 36.5622 43.4607 36.5947 42.7782H37.8539C37.8539 43.4336 37.7086 45.5085 37.4265 46.114C37.1443 46.7195 36.7307 47.2697 36.2094 47.7331C35.688 48.1966 35.069 48.5642 34.3878 48.815C33.7066 49.0658 32.9765 49.1949 32.2392 49.1949C31.5019 49.1949 30.7718 49.0658 30.0906 48.815C29.4094 48.5642 28.7904 48.1966 28.2691 47.7331C27.7477 47.2697 27.3341 46.7195 27.0519 46.114C26.7698 45.5085 26.6246 43.4336 26.6246 42.7782H27.8814Z" fill="#E3CFB4"/>
<path d="M33.0653 60.9954C33.0653 65.897 37.0986 70.0393 42.2648 70.0393C47.4311 70.0393 51.7808 65.897 51.7808 60.9954C51.7808 55.7626 45.628 47.8726 43.3003 45.0789C43.2512 45.0109 43.1814 44.9605 43.1013 44.9353C43.0213 44.91 42.9352 44.9113 42.8559 44.9389C42.7766 44.9665 42.7084 45.0189 42.6613 45.0883C42.6142 45.1578 42.5908 45.2406 42.5946 45.3244C42.7934 47.6622 42.657 52.6651 38.4694 55.1587C38.3856 55.2154 38.283 55.2374 38.1834 55.22C38.0837 55.2025 37.9947 55.147 37.9352 55.0652C37.4103 54.2925 37.107 53.3911 37.0579 52.4586C37.0533 52.3729 37.0206 52.2912 36.9648 52.226C36.909 52.1608 36.8333 52.1159 36.7493 52.0981C36.6653 52.0803 36.5778 52.0908 36.5004 52.1278C36.4229 52.1647 36.3599 52.2262 36.321 52.3027C34.5391 55.2327 33.0653 58.4316 33.0653 60.9954Z" fill="#47332C"/>
<path d="M48.7358 65.2155C48.7358 68.5711 45.8369 71.2871 42.265 71.2871C38.6931 71.2871 35.7942 68.5711 35.7942 65.2155C35.7942 61.86 39.543 56.897 41.3332 54.7225C41.3869 54.646 41.4643 54.589 41.5538 54.5601C41.6433 54.5312 41.7399 54.5321 41.8288 54.5625C41.9178 54.593 41.9943 54.6513 42.0465 54.7287C42.0988 54.8061 42.124 54.8982 42.1183 54.9911C42.0536 56.6966 42.3556 59.5832 44.8577 61.1522C44.9063 61.184 44.9609 61.2058 45.0182 61.2161C45.0756 61.2265 45.1344 61.2253 45.1913 61.2125C45.2481 61.1997 45.3018 61.1757 45.349 61.1419C45.3962 61.1081 45.436 61.0652 45.4659 61.0158C45.6834 60.6477 45.8297 60.2429 45.8973 59.8219C45.9071 59.7293 45.9474 59.6424 46.012 59.5745C46.0765 59.5066 46.1617 59.4615 46.2547 59.446C46.3476 59.4305 46.4431 59.4456 46.5266 59.4888C46.6101 59.5321 46.6769 59.6011 46.7169 59.6855C47.8515 61.5743 48.7358 63.5825 48.7358 65.2155Z" fill="#E3CFB4"/>
</svg>
