<svg width="85" height="86" viewBox="0 0 85 86" fill="none" xmlns="http://www.w3.org/2000/svg">
<ellipse cx="42.5041" cy="42.8158" rx="42.4963" ry="42.8158" fill="#725E49"/>
<path fill-rule="evenodd" clip-rule="evenodd" d="M70.3018 58.3283C70.3018 56.6805 69.4991 55.123 68.0921 54.2653C60.7285 49.7766 52.0778 47.1907 42.8231 47.1907C33.5686 47.1907 24.918 49.7765 17.5545 54.2651C16.1474 55.1228 15.3447 56.6803 15.3447 58.3281V68.4012C15.3447 71.1626 17.5833 73.4012 20.3447 73.4012H65.3018C68.0632 73.4012 70.3018 71.1626 70.3018 68.4012V58.3283Z" fill="#E3CFB4"/>
<path d="M57.0319 30.0947C57.0319 38.1282 50.4215 44.9172 41.9542 44.9172C33.4869 44.9172 26.3579 38.1282 26.3579 30.0947C26.3579 21.5184 36.442 8.58687 40.2571 4.00816C40.3376 3.89665 40.4519 3.81408 40.5832 3.77273C40.7144 3.73138 40.8555 3.73345 40.9854 3.77865C41.1154 3.82385 41.2272 3.90976 41.3044 4.02359C41.3816 4.13743 41.4199 4.27312 41.4137 4.41047C41.0878 8.24203 41.3115 16.4416 48.1748 20.5286C48.3121 20.6215 48.4802 20.6575 48.6436 20.6289C48.8069 20.6003 48.9528 20.5094 49.0503 20.3753C49.9105 19.1089 50.4077 17.6316 50.4881 16.1031C50.4956 15.9627 50.5492 15.8287 50.6407 15.7219C50.7321 15.6151 50.8563 15.5414 50.9939 15.5123C51.1316 15.4832 51.275 15.5003 51.4019 15.5609C51.5288 15.6216 51.6322 15.7224 51.6959 15.8477C54.6163 20.6499 57.0319 25.8927 57.0319 30.0947Z" fill="#47332C"/>
<path d="M31.3486 34.9661C31.3486 40.4657 36.0999 44.9172 41.9541 44.9172C47.8083 44.9172 52.5595 40.4657 52.5595 34.9661C52.5595 29.4665 46.4154 21.3324 43.4813 17.7684C43.3934 17.6431 43.2664 17.5496 43.1197 17.5023C42.973 17.455 42.8147 17.4563 42.6689 17.5062C42.5231 17.5561 42.3978 17.6518 42.3122 17.7786C42.2265 17.9054 42.1852 18.0565 42.1945 18.2087C42.3005 21.0039 41.8056 25.7349 37.7048 28.3065C37.6252 28.3586 37.5356 28.3942 37.4417 28.4112C37.3477 28.4282 37.2512 28.4262 37.158 28.4053C37.0648 28.3844 36.9769 28.345 36.8996 28.2896C36.8222 28.2342 36.757 28.1639 36.7079 28.0829C36.3515 27.4796 36.1118 26.8161 36.0009 26.1262C35.9848 25.9743 35.9188 25.8319 35.813 25.7206C35.7072 25.6094 35.5675 25.5354 35.4151 25.5101C35.2628 25.4847 35.1063 25.5093 34.9695 25.5802C34.8327 25.6511 34.7231 25.7643 34.6575 25.9026C32.798 28.9983 31.3486 32.2897 31.3486 34.9661Z" fill="#E3CFB4"/>
</svg>
